<svg xmlns="http://www.w3.org/2000/svg" viewBox="0 0 560 200" role="img" aria-label="NAM Landscaping logo">
  <!-- Mark: leaf sprout rising from a swirl basin -->
  <g>
    <path d="M22 142c-4 18 28 34 66 32 36-2 64-18 60-34-3-11-20-16-40-14 16 3 25 9 23 15-3 10-24 16-44 16-30 0-58-8-65-15z" fill="#1f7d35"/>
    <path d="M44 168c14 9 42 12 64 6-20 11-54 9-64-6z" fill="#1f7d35" opacity="0.85"/>
    <path d="M92 150C86 118 90 84 112 50" stroke="#1f7d35" stroke-width="10" stroke-linecap="round" fill="none"/>
    <path d="M114 48C97 45 86 34 83 17c17 3 28 14 31 31z" fill="#1f7d35"/>
    <path d="M104 62C87 65 73 60 64 46c17-3 31 2 40 16z" fill="#1f7d35"/>
    <path d="M112 66c17-6 33-3 44 8-17 6-33 3-44-8z" fill="#1f7d35"/>
    <path d="M96 92C79 95 65 90 56 76c17-3 31 2 40 16z" fill="#1f7d35"/>
    <path d="M100 98c17-6 33-3 44 8-17 6-33 3-44-8z" fill="#1f7d35"/>
  </g>
  <!-- Wordmark -->
  <text x="200" y="86" font-family="Georgia, 'Times New Roman', serif" font-size="52" letter-spacing="6" fill="#1f7d35">NAM</text>
  <text x="198" y="148" font-family="Arial, Helvetica, sans-serif" font-weight="800" font-size="46" letter-spacing="2" fill="#1f7d35">LANDSCAPING</text>
</svg>
